<?xml version="1.0" encoding="UTF-8"?>
<svg width="285px" height="66px" viewBox="0 0 285 66" version="1.1" xmlns="http://www.w3.org/2000/svg" xmlns:xlink="http://www.w3.org/1999/xlink">
    <!-- Generator: Sketch 54.1 (76490) - https://sketchapp.com -->
    <title>apparrant2</title>
    <desc>Created with Sketch.</desc>
    <g id="Page-1" stroke="none" stroke-width="1" fill="none" fill-rule="evenodd">
        <g id="apparrant2" fill-rule="nonzero">
            <path d="M62.4490566,27.2198113 C62.4999999,27.4235849 62.4999999,27.5764151 62.5509435,27.7801887 C62.4999999,27.6273585 62.4999999,27.4745283 62.4490566,27.2707547 C62.4490566,27.2707547 62.4490566,27.2198113 62.4490566,27.2198113 Z" id="Path" fill="#FFFFFF"></path>
            <path d="M122.807555,26.6391045 C121.314791,22.9934328 115.716926,20.0892537 114.037566,20.0274627 C111.238634,19.9656716 96,20.0274627 96,20.0274627 L96,66 L103.463821,58.7704479 L103.463821,52.1588062 L109.870267,52.1588062 C112.047214,52.1588062 114.224162,51.7880599 116.214514,50.984776 C118.018271,50.2432838 120.008623,49.0074627 121.439188,47.0919403 C124.922305,42.4576119 124.300319,30.2229851 122.807555,26.6391045 Z M116.836499,38.1940299 C116.712102,40.0477614 115.96572,41.7779106 114.659551,43.0755223 C113.850971,43.8788062 113.104589,44.2495525 112.607001,44.2495525 C111.79842,44.2495525 103.215027,44.2495525 103.215027,44.2495525 L103.215027,27.6895523 C103.215027,27.6895523 110.616649,27.380597 112.731398,27.6895523 C113.788772,27.8749254 114.597353,28.4310448 115.281536,29.1107463 C116.338911,30.2229851 116.836499,31.7059702 116.898697,33.2507463 C116.898697,34.6101493 116.898697,36.4638806 116.836499,38.1940299 Z" id="Shape" fill="#FFFFFF"></path>
            <path d="M90.801648,26.6391045 C89.3092127,22.9934328 83.7125808,20.0892537 82.0335915,20.0274627 C79.2352754,19.9656716 64,20.0274627 64,20.0274627 L64,66 L71.4621756,58.7704479 L71.4621756,52.1588062 L77.9293945,52.1588062 C80.1058627,52.1588062 82.2823306,51.7880599 84.272244,50.984776 C86.0756031,50.2432838 88.0655169,49.0074627 89.4957671,47.0919403 C92.9159311,42.4576119 92.2940832,30.2229851 90.801648,26.6391045 Z M84.8319073,38.1940299 C84.7075375,40.0477614 83.9613203,41.7779106 82.6554394,43.0755223 C81.8470371,43.8788062 81.1008194,44.2495525 80.6033409,44.2495525 C79.7949386,44.2495525 71.2134365,44.2495525 71.2134365,44.2495525 L71.2134365,27.6895523 C71.2134365,27.6895523 78.6134275,27.380597 80.7277106,27.6895523 C81.784852,27.8749254 82.5932544,28.4310448 83.2772873,29.1107463 C84.3344287,30.2229851 84.8319073,31.7059702 84.8940919,33.2507463 C84.8940919,34.6101493 84.956277,36.4638806 84.8319073,38.1940299 Z" id="Shape" fill="#FFFFFF"></path>
            <path d="M219.558001,20 C212.386991,20 202.511125,20 202.511125,20 L202.511125,27.4789272 L219.243483,27.4789272 C220.75317,27.4789272 222.011242,28.7049808 221.948339,30.1762452 C221.948339,30.1762452 221.948339,30.2375479 221.948339,30.2375479 C221.696724,32.0153257 221.004784,32.4444445 219.998327,32.5670498 L208.424063,32.5670498 C207.040184,32.5670498 205.656305,33.0574713 204.649847,33.9770115 C202.95145,35.4482759 200.938535,38.3295021 201.001438,43.3563219 C201.001438,43.3563219 201.127245,45.3180076 202.070799,47.5249044 C203.203064,50.2222223 205.970823,52 208.990196,52 L230,52 L230,28.9501916 C230,28.9501916 230,28.8275862 229.937096,28.6436782 C229.182253,23.6168582 224.716097,20 219.558001,20 Z M222.074146,40.0459772 L222.074146,44.8275864 L209.745039,44.8275864 C208.801485,43.2950193 208.801485,41.4559387 209.745039,39.9233717 L222.074146,39.9233717 L222.074146,40.0459772 Z" id="Shape" fill="#FFFFFF"></path>
            <path d="M145.558001,20 C138.386991,20 128.511125,20 128.511125,20 L128.511125,27.4789272 L145.243483,27.4789272 C146.75317,27.4789272 148.011242,28.7049808 147.948339,30.1762452 C147.948339,30.1762452 147.948339,30.2375479 147.948339,30.2375479 C147.696724,32.0153257 147.004784,32.4444445 145.998327,32.5670498 L134.424063,32.5670498 C133.040184,32.5670498 131.656305,33.0574713 130.649847,33.9770115 C128.95145,35.4482759 126.938535,38.3295021 127.001438,43.3563219 C127.001438,43.3563219 127.127245,45.3180076 128.070799,47.5249044 C129.203064,50.2222223 131.970823,52 134.990196,52 L156,52 L156,28.9501916 C156,28.9501916 156,28.8275862 155.937096,28.6436782 C155.182253,23.6168582 150.779001,20 145.558001,20 Z M148.074146,40.0459772 L148.074146,44.8275864 L135.745039,44.8275864 C134.801485,43.2950193 134.801485,41.4559387 135.745039,39.9233717 L148.074146,39.9233717 L148.074146,40.0459772 Z" id="Shape" fill="#FFFFFF"></path>
            <path d="M161.062271,52 L169.157509,52 L169.157509,29.6370656 C169.157509,29.6370656 169.157509,29.6370656 169.157509,29.6370656 C169.157509,28.4015444 170.153846,27.4131274 171.399267,27.4131274 L178,27.4131274 L178,20 L168.161172,20 C165.919414,20 163.739927,20.9266409 162.369963,22.6563707 C161.934066,23.2123552 161.56044,23.8301158 161.311355,24.5096525 C161.062271,25.1274131 161,25.8069498 161,26.4864865 L161,52 L161.062271,52 Z" id="Path" fill="#FFFFFF"></path>
            <path d="M181.062271,52 L189.157509,52 L189.157509,29.6370656 C189.157509,29.6370656 189.157509,29.6370656 189.157509,29.6370656 C189.157509,28.4015444 190.153846,27.4131274 191.399267,27.4131274 L198,27.4131274 L198,20 L188.161172,20 C185.919414,20 183.739927,20.9266409 182.369963,22.6563707 C181.934066,23.2123552 181.56044,23.8301158 181.311355,24.5096525 C181.062271,25.1274131 181,25.8069498 181,26.4864865 L181,52 L181.062271,52 Z" id="Path" fill="#FFFFFF"></path>
            <path d="M241.8125,27.6148502 L241.8125,51 L234,51 L234,23.4255319 C234,21.9248806 234.75,20.4242293 236.0625,19.6739036 C236.5625,19.3612679 237.1875,19.1736865 237.9375,19.1111593 C240.9375,18.8610508 254.8125,19.1111593 255,19.1111593 C255.1875,19.1111593 258.9375,19.7364307 261.375,23.7381676 C262.5,25.5514546 263,27.6773773 263,29.8658272 L263,51 L255.5625,51 L255.4375,30.1159357 C255.4375,29.4281372 255.25,28.7403387 254.9375,28.1150673 C254.875,28.0525402 254.875,27.9274859 254.8125,27.8649587 C254,26.614416 252.5,25.8640903 251,25.8640903 L243.125,25.8640903 L243.125,25.8640903 C242.375,26.0516717 241.8125,26.7394703 241.8125,27.6148502 Z" id="Path" fill="#FFFFFF"></path>
            <g id="Group">
                <path d="M62.2378468,30.9615982 C62.363707,38.2614872 60.0352941,44.9320755 56.007769,50.3440623 L42.981243,10.4463929 C42.226082,8.05504996 40.2752496,6.10421753 37.8209768,5.47491676 C33.1012209,4.21631521 28.5073252,4.84561598 25.2978912,5.663707 C22.7806881,6.29300778 20.7039955,8.24384017 19.9488346,10.6981132 L7.48867926,51.2250832 L7.42574915,51.4138735 C7.42574915,51.4138735 6.79644838,50.8475027 6.1671476,50.0294118 C2.2654828,44.7432852 6.3504757e-13,38.1985573 0.0629300778,31.0874584 C0.377580464,14.5368479 13.2153163,1.38446171 29.6400666,0.5663707 C47.2604884,-0.251720311 61.8602663,13.3411765 62.2378468,30.9615982 Z" id="Path" fill="#A7A9AC"></path>
                <path d="M46.5053274,58.8396227 C46.5053274,58.8396227 46.3165372,58.965483 46.3165372,59.0284129 C41.9743618,61.4197558 37.5063262,62.7412875 32.1572697,62.7412875 C27.1228635,62.7412875 21.7108768,61.671476 17.4945616,59.5947837 L22.0255272,44.4286347 L41.6597113,44.4286347 L46.5053274,58.8396227 Z" id="Path" fill="#2575BC"></path>
                <polygon id="Path" fill="#2575BC" points="38.5132074 32.8495005 25.4866815 32.8495005 31.7167592 13.5299667"></polygon>
                <path d="M56.007769,50.3440623 L42.7924528,9.75416204 C42.1631521,7.86625971 40.7157604,6.35593785 38.827858,5.72663707 C33.3529412,3.96459489 27.8150943,4.90854605 24.4168702,5.85249721 C22.3401776,6.41886792 20.7669256,8.05504996 20.1376248,10.0688124 L7.48867926,51.2250832 L7.42574915,51.4138735 C9.94295228,54.5603773 13.0894562,57.1405105 16.7394007,59.0913429 C16.8652608,59.1542732 16.9281909,59.2172032 17.054051,59.2801331 C17.2428413,59.3430631 17.3687014,59.4689234 17.5574917,59.5318533 L17.5574917,59.5318533 L17.6204217,59.2801331 L22.0255272,44.4286347 L41.6597113,44.4286347 L46.4423974,58.6508324 L46.4423974,58.6508324 L46.5053274,58.7766927 C50.218202,56.63707 53.4276358,53.8052163 56.007769,50.4069923 L56.007769,50.3440623 Z M25.3608213,32.9753607 L31.7167592,13.6558269 L38.6390677,32.9753607 L25.3608213,32.9753607 Z" id="Shape" fill="#FFFFFF"></path>
            </g>
            <path d="M271.107383,9 L271.107383,18.1517857 L267,18.1517857 L267,25.7782738 L271.107383,25.7782738 L271.107383,44.8139878 C271.107383,46.0952379 271.530201,47.376488 272.375839,48.3526785 C273.040268,49.0848214 274.067114,49.7559521 275.577181,50 C275.697987,50 275.879195,50 276,50 L284.939597,50 L284.939597,42.6785713 L279.865772,42.7395831 C279.14094,42.7395831 278.536913,42.1294641 278.536913,41.3973212 L278.536913,25.7782738 L285,25.7782738 L285,18.0907738 L278.959732,18.2127976 L278.959732,9 L271.107383,9 Z" id="Path" fill="#FFFFFF"></path>
        </g>
    </g>
</svg>